<?xml version="1.0" standalone="no"?>
<!DOCTYPE svg PUBLIC "-//W3C//DTD SVG 20010904//EN"
 "http://www.w3.org/TR/2001/REC-SVG-20010904/DTD/svg10.dtd">
<svg version="1.0" xmlns="http://www.w3.org/2000/svg"
 width="450.000000pt" height="450.000000pt" viewBox="0 0 450.000000 450.000000"
 preserveAspectRatio="xMidYMid meet">
<g transform="translate(0.000000,450.000000) scale(0.100000,-0.100000)"
fill="#000000" stroke="none">
<path d="M1750 2925 c-317 -53 -612 -219 -738 -413 -22 -34 -48 -83 -57 -109
-17 -45 -22 -50 -99 -88 -115 -56 -237 -177 -294 -292 -56 -114 -76 -209 -70
-340 3 -57 9 -108 14 -113 7 -7 45 -2 110 12 134 30 415 32 544 4 59 -13 144
-20 275 -23 l190 -5 63 127 63 126 -448 -3 c-388 -3 -455 -6 -498 -21 -27 -9
-53 -17 -57 -17 -25 0 6 149 46 228 53 103 165 196 272 228 47 13 56 21 82 67
94 164 282 308 482 368 73 22 90 23 570 27 l496 3 62 125 62 124 -498 -1
c-350 -1 -519 -5 -572 -14z"/>
<path d="M3137 2825 c-31 -63 -57 -120 -57 -125 0 -6 70 -10 185 -10 l185 0
60 120 c33 66 60 122 60 125 0 3 -84 5 -188 5 l-187 0 -58 -115z"/>
<path d="M2220 2500 l-30 -60 190 0 190 0 30 60 30 60 -190 0 -190 0 -30 -60z"/>
<path d="M2983 2508 c-15 -29 -29 -56 -31 -60 -2 -5 81 -8 185 -8 l189 0 27
55 c15 31 27 58 27 60 0 3 -83 5 -185 5 l-185 0 -27 -52z"/>
<path d="M2097 2255 c-15 -31 -27 -58 -27 -60 0 -3 85 -5 188 -5 l188 0 27 55
c15 31 27 58 27 60 0 3 -85 5 -188 5 l-188 0 -27 -55z"/>
<path d="M2854 2250 l-31 -60 188 0 189 0 30 60 30 60 -187 0 -188 0 -31 -60z"/>
<path d="M1970 2000 c-16 -33 -30 -62 -30 -65 0 -3 85 -5 188 -5 l188 0 32 65
32 65 -190 0 -190 0 -30 -60z"/>
<path d="M2754 2048 c-17 -26 -54 -103 -54 -110 0 -5 83 -8 185 -8 l185 0 30
60 c16 33 30 62 30 65 0 3 -83 5 -184 5 -136 0 -187 -3 -192 -12z"/>
<path d="M1872 1798 c-5 -7 -35 -64 -66 -126 l-56 -112 987 2 988 3 78 37 c81
39 163 111 200 176 l18 32 -1069 0 c-844 0 -1072 -3 -1080 -12z"/>
</g>
</svg>
